<svg width="94" height="43" viewBox="0 0 94 43" fill="none" xmlns="http://www.w3.org/2000/svg">
<path d="M2.1243 3.43193C1.67442 15.2605 2.46325 29.2878 4.20671 41L88.9722 39.353C89.9576 34.0542 90.3021 28.6627 90.6442 23.2863L92 2C80.3258 4.38897 68.2505 2.73535 56.331 2.38766C39.6613 1.90308 18.7792 4.28236 2.1243 3.43193Z" fill="#FFF06E" stroke="#FFF06E" stroke-width="2.999" stroke-miterlimit="10" stroke-linecap="round" stroke-linejoin="round"/>
<path d="M8.51196 36.8042L15.0969 36.5564L13.433 30.458C12.8185 32.592 9.86716 35.0312 8.51196 36.8042Z" fill="#FFF06E" stroke="#FFF06E" stroke-width="2.999" stroke-miterlimit="10" stroke-linecap="round" stroke-linejoin="round"/>
<path d="M27.8145 35.7324H27.1758L30.7383 26.4688H31.3711L27.8145 35.7324ZM34.2012 33.541L34.3066 34.0859L34.4473 33.5117L35.9707 28.6602H36.5684L38.0742 33.4707L38.2383 34.1387L38.373 33.5234L39.6738 28.6602H40.4004L38.5547 35H37.957L36.3281 29.9727L36.252 29.627L36.1758 29.9785L34.5762 35H33.9785L32.1387 28.6602H32.8594L34.2012 33.541ZM44.1855 35.1172C43.6465 35.1172 43.1582 34.9844 42.7207 34.7188C42.2871 34.4531 41.9492 34.084 41.707 33.6113C41.4648 33.1348 41.3438 32.6016 41.3438 32.0117V31.7598C41.3438 31.1504 41.4609 30.6016 41.6953 30.1133C41.9336 29.625 42.2637 29.2422 42.6855 28.9648C43.1074 28.6836 43.5645 28.543 44.0566 28.543C44.8262 28.543 45.4355 28.8066 45.8848 29.334C46.3379 29.8574 46.5645 30.5742 46.5645 31.4844V31.877H42.041V32.0117C42.041 32.7305 42.2461 33.3301 42.6562 33.8105C43.0703 34.2871 43.5898 34.5254 44.2148 34.5254C44.5898 34.5254 44.9199 34.457 45.2051 34.3203C45.4941 34.1836 45.7559 33.9648 45.9902 33.6641L46.4297 33.998C45.9141 34.7441 45.166 35.1172 44.1855 35.1172ZM44.0566 29.1406C43.5293 29.1406 43.084 29.334 42.7207 29.7207C42.3613 30.1074 42.1426 30.627 42.0645 31.2793H45.8672V31.2031C45.8477 30.5938 45.6738 30.0977 45.3457 29.7148C45.0176 29.332 44.5879 29.1406 44.0566 29.1406ZM50.3848 35.1172C49.8457 35.1172 49.3574 34.9844 48.9199 34.7188C48.4863 34.4531 48.1484 34.084 47.9062 33.6113C47.6641 33.1348 47.543 32.6016 47.543 32.0117V31.7598C47.543 31.1504 47.6602 30.6016 47.8945 30.1133C48.1328 29.625 48.4629 29.2422 48.8848 28.9648C49.3066 28.6836 49.7637 28.543 50.2559 28.543C51.0254 28.543 51.6348 28.8066 52.084 29.334C52.5371 29.8574 52.7637 30.5742 52.7637 31.4844V31.877H48.2402V32.0117C48.2402 32.7305 48.4453 33.3301 48.8555 33.8105C49.2695 34.2871 49.7891 34.5254 50.4141 34.5254C50.7891 34.5254 51.1191 34.457 51.4043 34.3203C51.6934 34.1836 51.9551 33.9648 52.1895 33.6641L52.6289 33.998C52.1133 34.7441 51.3652 35.1172 50.3848 35.1172ZM50.2559 29.1406C49.7285 29.1406 49.2832 29.334 48.9199 29.7207C48.5605 30.1074 48.3418 30.627 48.2637 31.2793H52.0664V31.2031C52.0469 30.5938 51.873 30.0977 51.5449 29.7148C51.2168 29.332 50.7871 29.1406 50.2559 29.1406ZM55.6348 31.8066L54.832 32.5801V35H54.1289V26H54.832V31.7598L55.4941 31.0449L57.9199 28.6602H58.8047L56.1152 31.332L59.0391 35H58.2012L55.6348 31.8066Z" fill="#404040"/>
<rect x="6" y="13.9915" width="14.4634" height="1.4804" transform="rotate(-21.8487 6 13.9915)" fill="#FF7A64"/>
<rect x="6.98413" y="13.801" width="13.5821" height="1.4804" transform="rotate(9.86731 6.98413 13.801)" fill="#FF7A64"/>
<rect x="6.74683" y="21.4472" width="14.8518" height="1.4804" transform="rotate(-21.1577 6.74683 21.4472)" fill="#FF7A64"/>
<rect x="12.9468" y="26.3445" width="20.2914" height="1.4804" transform="rotate(-93.6429 12.9468 26.3445)" fill="#FF7A64"/>
</svg>
