<svg width="214" height="106" viewBox="0 0 214 106" fill="none" xmlns="http://www.w3.org/2000/svg">
<path d="M2.20218 4.364C1.47218 23.892 2.75218 47.05 5.58118 66.386L143.125 63.667C144.724 54.919 145.283 46.018 145.838 37.142L148.038 2C129.095 5.944 109.501 3.214 90.1602 2.64C63.1102 1.839 29.2272 5.769 2.20218 4.364V4.364Z" fill="#FFF06E" stroke="#FF7A64" stroke-width="3.685" stroke-miterlimit="10" stroke-linecap="round" stroke-linejoin="round"/>
<path d="M75.6188 14.6968C72.5788 12.8888 69.1128 11.2508 65.6338 11.8838C61.2088 12.6888 58.2358 16.8898 56.5168 21.0458C54.6599 25.5433 53.6888 30.3571 53.6568 35.2228C53.6158 41.9858 55.7958 49.2728 61.3468 53.1378C64.0468 55.0178 67.3158 55.9268 70.5788 56.3458C78.4748 57.3588 86.9048 55.4818 92.9988 50.3618C99.0958 45.2418 102.448 36.7058 100.5 28.9878C98.8698 22.5328 93.7658 17.2518 87.6578 14.6028C81.5498 11.9528 74.5638 11.7558 68.0608 13.1858" fill="#FF7A64"/>
<path d="M75.6188 14.6968C72.5788 12.8888 69.1128 11.2508 65.6338 11.8838C61.2088 12.6888 58.2358 16.8898 56.5168 21.0458C54.6599 25.5433 53.6888 30.3571 53.6568 35.2228C53.6158 41.9858 55.7958 49.2728 61.3468 53.1378C64.0468 55.0178 67.3158 55.9268 70.5788 56.3458C78.4748 57.3588 86.9048 55.4818 92.9988 50.3618C99.0958 45.2418 102.448 36.7058 100.5 28.9878C98.8698 22.5328 93.7658 17.2518 87.6578 14.6028C81.5498 11.9528 74.5638 11.7558 68.0608 13.1858" stroke="#FF7A64" stroke-width="3.685" stroke-miterlimit="10" stroke-linecap="round" stroke-linejoin="round"/>
<path d="M72.1731 40.46C72.8638 43.6969 72.7857 47.0507 71.9451 50.252M81.4621 23.163C75.5213 26.6077 69.3515 29.6415 62.9961 32.243C68.9313 33.0276 74.8997 33.5365 80.8821 33.768C80.8851 35.056 79.7261 36.012 78.6421 36.706C75.8175 38.5115 72.7546 39.9137 69.5421 40.872C68.4301 41.204 67.2251 41.528 66.4851 42.422L81.4621 23.163ZM71.1321 25.563C70.8431 21.691 71.2431 21.662 71.7521 17.813L71.1321 25.563Z" stroke="#242430" stroke-width="3.685" stroke-miterlimit="10" stroke-linecap="round" stroke-linejoin="round"/>
<path d="M65.8619 41.9172C65.1319 61.4452 66.4118 84.6032 69.2408 103.939L206.785 101.22C208.384 92.4722 208.943 83.5712 209.498 74.6952L211.698 39.5532C192.755 43.4972 173.161 40.7672 153.82 40.1932C126.771 39.3932 92.8868 43.3212 65.8619 41.9172V41.9172Z" fill="#FF7A64" stroke="#FF7A64" stroke-width="2.999" stroke-miterlimit="10" stroke-linecap="round" stroke-linejoin="round"/>
<path d="M139.279 52.25C136.24 50.442 132.773 48.804 129.294 49.437C124.869 50.242 121.896 54.443 120.177 58.599C118.32 63.0965 117.349 67.9103 117.317 72.776C117.276 79.539 119.456 86.827 125.007 90.691C127.707 92.571 130.976 93.48 134.239 93.899C142.135 94.912 150.565 93.035 156.66 87.915C162.755 82.795 166.108 74.259 164.161 66.541C162.532 60.086 157.427 54.805 151.319 52.156C145.211 49.507 138.225 49.309 131.722 50.739" fill="#FFF06E"/>
<path d="M139.279 52.25C136.24 50.442 132.773 48.804 129.294 49.437C124.869 50.242 121.896 54.443 120.177 58.599C118.32 63.0965 117.349 67.9103 117.317 72.776C117.276 79.539 119.456 86.827 125.007 90.691C127.707 92.571 130.976 93.48 134.239 93.899C142.135 94.912 150.565 93.035 156.66 87.915C162.755 82.795 166.108 74.259 164.161 66.541C162.532 60.086 157.427 54.805 151.319 52.156C145.211 49.507 138.225 49.309 131.722 50.739" stroke="#FFF06E" stroke-width="2.999" stroke-miterlimit="10" stroke-linecap="round" stroke-linejoin="round"/>
<path d="M135.834 78.0132C136.525 81.2499 136.446 84.6034 135.605 87.8042M145.118 60.7152C139.177 64.1596 133.007 67.1931 126.652 69.7942C132.587 70.5791 138.555 71.0883 144.538 71.3202C144.541 72.6082 143.382 73.5642 142.297 74.2582C139.473 76.0637 136.41 77.4659 133.198 78.4242C132.086 78.7562 130.881 79.0802 130.141 79.9742L145.118 60.7152ZM134.792 63.1152C134.503 59.2432 134.903 59.2152 135.412 55.3652L134.792 63.1152Z" stroke="#242430" stroke-width="2.999" stroke-miterlimit="10" stroke-linecap="round" stroke-linejoin="round"/>
<path d="M76.2271 97.0122L86.9121 96.6031L84.2121 86.5352C83.2151 90.0582 78.4261 94.0852 76.2271 97.0122Z" fill="#FFF06E" stroke="#FFF06E" stroke-width="2.999" stroke-miterlimit="10" stroke-linecap="round" stroke-linejoin="round"/>
<path d="M10 59.477L20.685 59.068L17.986 49C16.988 52.523 12.199 56.55 10 59.477V59.477Z" fill="#FF7A64" stroke="#FF7A64" stroke-width="2.999" stroke-miterlimit="10" stroke-linecap="round" stroke-linejoin="round"/>
</svg>
