<svg width="12" height="12" viewBox="0 0 12 12" fill="none" xmlns="http://www.w3.org/2000/svg">
<path d="M5.77549 1.96419C5.1147 1.57016 4.36084 1.21319 3.60438 1.35114C2.64221 1.52658 1.99577 2.44211 1.622 3.34784C1.21823 4.32801 1.00708 5.37709 1.00012 6.43748C0.991208 7.91137 1.46522 9.49966 2.67222 10.3418C3.2593 10.7515 3.9701 10.9496 4.6796 11.0409C6.39649 11.2617 8.22949 10.8526 9.55477 9.73678C10.8801 8.62096 11.6091 6.76068 11.1858 5.07867C10.8316 3.67191 9.72155 2.521 8.39344 1.9437C7.06533 1.36639 5.54631 1.32324 4.13231 1.63489" stroke="#242430" stroke-width="0.976456" stroke-miterlimit="10" stroke-linecap="round" stroke-linejoin="round"/>
<rect x="5.09595" y="6.5368" width="7.62224" height="0.872381" transform="rotate(-32.3835 5.09595 6.5368)" fill="#242430"/>
<rect x="5.92114" y="7.73383" width="7.70596" height="0.683346" transform="rotate(-93.6429 5.92114 7.73383)" fill="#242430"/>
</svg>
